<svg width="27" height="25" viewBox="0 0 27 25" fill="none" xmlns="http://www.w3.org/2000/svg">
<path d="M12.1447 4.95038V8.79432C12.1447 9.11261 12.0764 9.42776 11.9437 9.72169C11.811 10.0156 11.6165 10.2825 11.3714 10.5071C11.1263 10.7317 10.8355 10.9096 10.5155 11.0305C10.1955 11.1514 9.85272 11.213 9.50681 11.2116H5.35077C5.0058 11.2136 4.66396 11.1514 4.34574 11.0288C4.02752 10.9062 3.73947 10.7258 3.49886 10.4983C3.25506 10.2751 3.06193 10.0095 2.93069 9.71696C2.79945 9.42442 2.73273 9.1108 2.73441 8.79432V4.96029C2.7344 4.32089 3.00971 3.70753 3.50006 3.25448C3.99042 2.80143 4.65588 2.54559 5.35077 2.54297H9.51758C9.86219 2.54327 10.2033 2.60648 10.5212 2.72892C10.8391 2.85136 11.1274 3.0306 11.3695 3.25628C11.6149 3.47685 11.8099 3.74035 11.9431 4.03129C12.0762 4.32222 12.1448 4.63471 12.1447 4.95038ZM23.7192 4.96029V8.79432C23.7136 9.43214 23.4365 10.0425 22.9473 10.4945C22.4582 10.9464 21.796 11.2039 21.1028 11.2116H16.9252C16.2288 11.2077 15.5612 10.9556 15.0626 10.5082C14.8189 10.2828 14.626 10.0154 14.4948 9.72134C14.3636 9.42724 14.2968 9.11223 14.2981 8.79432V4.96029C14.2966 4.64295 14.3645 4.32858 14.4977 4.03585C14.6308 3.74312 14.8266 3.47801 15.0733 3.25628C15.3154 3.0306 15.6037 2.85136 15.9216 2.72892C16.2395 2.60648 16.5806 2.54327 16.9252 2.54297H21.092C21.7871 2.54815 22.452 2.80449 22.9435 3.25671C23.435 3.70893 23.7135 4.32078 23.7192 4.96029ZM23.7192 15.6104V19.4444C23.7136 20.0822 23.4365 20.6926 22.9473 21.1446C22.4582 21.5965 21.796 21.854 21.1028 21.8617H16.9252C16.2244 21.8683 15.5484 21.623 15.041 21.1781C14.7964 20.9534 14.6028 20.6861 14.4716 20.3919C14.3404 20.0976 14.2741 19.7823 14.2766 19.4642V15.6302C14.2752 15.3129 14.343 14.9985 14.4762 14.7058C14.6094 14.4131 14.8051 14.148 15.0518 13.9262C15.2939 13.7006 15.5822 13.5213 15.9001 13.3989C16.218 13.2765 16.5591 13.2132 16.9037 13.2129H21.0705C21.7655 13.2181 22.4305 13.4744 22.922 13.9266C23.4134 14.3788 23.692 14.9907 23.6976 15.6302L23.7192 15.6104ZM12.1447 15.6203V19.4543C12.1362 20.0938 11.8549 20.7046 11.3614 21.155C10.868 21.6053 10.2019 21.8592 9.50681 21.8617H5.35077C5.00679 21.863 4.66592 21.8017 4.34785 21.6812C4.02977 21.5606 3.74078 21.3834 3.49755 21.1595C3.25431 20.9357 3.06164 20.6698 2.93066 20.3771C2.79968 20.0845 2.73298 19.7708 2.73441 19.4543V15.6203C2.73718 14.9808 3.01305 14.3678 3.5025 13.9138C3.99196 13.4597 4.65578 13.2009 5.35077 13.1931H9.51758C10.2157 13.1986 10.884 13.4545 11.3803 13.9064C11.8713 14.3622 12.1462 14.9784 12.1447 15.6203Z" fill="#EA7C69"/>
</svg>
