<svg width="32" height="35" viewBox="0 0 32 35" fill="none" xmlns="http://www.w3.org/2000/svg">
<path opacity="0.983" fill-rule="evenodd" clip-rule="evenodd" d="M13.5938 5.41037C13.8446 5.39934 14.0946 5.41045 14.3438 5.4437C15.3115 5.90424 16.2699 6.38192 17.2188 6.87672C16.6711 9.62899 17.3169 12.0063 19.1562 14.0085C17.4366 14.8921 15.7074 15.7586 13.9688 16.6079C10.1144 14.7303 6.28106 12.8196 2.46875 10.8759C6.18219 9.05105 9.8905 7.22924 13.5938 5.41037Z" fill="#EA7C69"/>
<path opacity="0.991" fill-rule="evenodd" clip-rule="evenodd" d="M1.96875 11.8125C5.78736 13.6597 9.59988 15.526 13.4063 17.4113C13.4688 22.2989 13.4896 27.1868 13.4688 32.0748C9.73994 30.2977 6.03162 28.4648 2.34375 26.576C2.18088 26.4468 2.0663 26.2802 2 26.0761C1.96875 21.3216 1.95833 16.5671 1.96875 11.8125Z" fill="#EA7C69"/>
<path opacity="0.981" fill-rule="evenodd" clip-rule="evenodd" d="M23.0944 2.21422C26.1881 1.97416 28.3652 3.35163 29.6256 6.34666C30.5338 9.64034 29.6692 12.2509 27.0319 14.1783C25.6367 15.0039 24.1575 15.2372 22.5944 14.8781C20.0315 14.1113 18.5003 12.3339 18.0006 9.54596C17.7451 6.24504 19.0264 3.92332 21.8444 2.58081C22.2636 2.43591 22.6803 2.31371 23.0944 2.21422ZM25.7819 5.48018C26.299 5.42728 26.497 5.67167 26.3756 6.21335C25.7054 8.02056 25.0179 9.82017 24.3131 11.6122C24.1519 11.7353 23.9749 11.7686 23.7819 11.7122C23.0441 10.9921 22.3254 10.2478 21.6256 9.47931C21.4277 8.80166 21.6464 8.56838 22.2819 8.77946C22.7724 9.31368 23.2724 9.83577 23.7819 10.3458C24.3639 8.9173 24.916 7.47315 25.4381 6.0134C25.5087 5.79387 25.6232 5.61613 25.7819 5.48018Z" fill="#EA7C69"/>
<path opacity="0.99" fill-rule="evenodd" clip-rule="evenodd" d="M19.9063 14.7461C20.4895 15.0792 21.0937 15.3791 21.7188 15.6459C23.1311 16.1394 24.5478 16.1727 25.9688 15.7459C25.9792 19.1897 25.9688 22.6333 25.9375 26.077C25.7333 26.5036 25.4103 26.7813 24.9688 26.9101C21.4588 28.6647 17.938 30.3866 14.4063 32.0757C14.3958 27.21 14.4063 22.3444 14.4375 17.4788C16.2614 16.5562 18.0843 15.6452 19.9063 14.7461Z" fill="#EA7C69"/>
</svg>
