<svg width="33" height="34" viewBox="0 0 33 34" fill="none" xmlns="http://www.w3.org/2000/svg">
<path opacity="0.955" fill-rule="evenodd" clip-rule="evenodd" d="M16.184 2.92188C18.4301 2.96023 19.7704 4.08289 20.2049 6.28985C20.3281 7.94938 19.6821 9.19786 18.2668 10.0353C16.2335 10.8971 14.5653 10.4422 13.2624 8.67065C12.4725 7.18985 12.5496 5.75749 13.4938 4.37359C14.2039 3.52866 15.1007 3.04476 16.184 2.92188ZM16.2419 3.56063C16.3962 3.56063 16.5504 3.56063 16.7047 3.56063C16.7047 3.85097 16.7047 4.14131 16.7047 4.43166C16.5504 4.43166 16.3962 4.43166 16.2419 4.43166C16.2419 4.14131 16.2419 3.85097 16.2419 3.56063ZM14.3906 4.37359C14.6505 4.4787 14.8626 4.65291 15.027 4.8962C14.9509 5.00165 14.8641 5.09843 14.7666 5.18655C14.5729 5.00177 14.3896 4.80821 14.217 4.60586C14.2762 4.52736 14.3341 4.44994 14.3906 4.37359ZM18.4404 4.37359C18.5784 4.4243 18.6941 4.5114 18.7875 4.63489C18.6034 4.82938 18.4106 5.01327 18.2089 5.18655C18.1039 5.11019 18.0074 5.02309 17.9197 4.92524C18.105 4.74895 18.2786 4.56506 18.4404 4.37359ZM16.2419 5.24461C16.3962 5.24461 16.5504 5.24461 16.7047 5.24461C16.6951 5.59356 16.7048 5.94197 16.7337 6.28985C16.7819 6.33823 16.8301 6.38663 16.8783 6.43502C17.1863 6.46402 17.4948 6.47369 17.804 6.46405C17.804 6.6189 17.804 6.77375 17.804 6.9286C17.4948 6.91896 17.1863 6.92863 16.8783 6.95763C16.6262 7.21442 16.3658 7.2241 16.0973 6.98667C15.9715 6.72752 16.01 6.49525 16.213 6.28985C16.2418 5.94197 16.2515 5.59356 16.2419 5.24461ZM13.3492 6.46405C13.6385 6.46405 13.9277 6.46405 14.217 6.46405C14.217 6.6189 14.217 6.77375 14.217 6.9286C13.9277 6.9286 13.6385 6.9286 13.3492 6.9286C13.3492 6.77375 13.3492 6.6189 13.3492 6.46405ZM18.7296 6.46405C19.0189 6.46405 19.3082 6.46405 19.5974 6.46405C19.5974 6.6189 19.5974 6.77375 19.5974 6.9286C19.3082 6.9286 19.0189 6.9286 18.7296 6.9286C18.7296 6.77375 18.7296 6.6189 18.7296 6.46405ZM14.6798 8.14804C14.8179 8.19875 14.9336 8.28585 15.027 8.40935C14.8403 8.6206 14.6474 8.82384 14.4484 9.01906C14.3327 8.94166 14.2363 8.84486 14.1592 8.72872C14.334 8.53402 14.5075 8.34044 14.6798 8.14804ZM18.2089 8.14804C18.3989 8.3583 18.5917 8.57118 18.7875 8.78679C18.7104 8.90293 18.6139 8.99973 18.4982 9.07713C18.2966 8.90386 18.1038 8.71995 17.9197 8.52548C18.0064 8.3903 18.1028 8.26449 18.2089 8.14804ZM16.2419 8.961C16.3962 8.961 16.5504 8.961 16.7047 8.961C16.7047 9.25134 16.7047 9.54168 16.7047 9.83202C16.5504 9.83202 16.3962 9.83202 16.2419 9.83202C16.2419 9.54168 16.2419 9.25134 16.2419 8.961Z" fill="#EA7C69"/>
<path opacity="0.972" fill-rule="evenodd" clip-rule="evenodd" d="M26.4245 8.03132C27.6653 7.93418 28.562 8.43745 29.1147 9.5411C29.5404 10.9696 29.1065 12.0438 27.813 12.7639C26.5291 13.1796 25.4974 12.8408 24.7178 11.7477C24.1097 10.424 24.37 9.31097 25.4988 8.40876C25.794 8.23096 26.1026 8.10515 26.4245 8.03132Z" fill="#EA7C69"/>
<path opacity="0.972" fill-rule="evenodd" clip-rule="evenodd" d="M5.82638 8.14844C7.84913 8.25969 8.72661 9.32427 8.45874 11.3422C7.90108 12.7207 6.88863 13.2724 5.4214 12.9972C3.90396 12.3608 3.37362 11.2478 3.83041 9.65822C4.23274 8.79445 4.89806 8.29119 5.82638 8.14844Z" fill="#EA7C69"/>
<path opacity="0.921" fill-rule="evenodd" clip-rule="evenodd" d="M16.5884 12.738C17.3022 12.7283 18.0157 12.738 18.729 12.767C18.8269 12.8484 18.8655 12.9548 18.8447 13.0864C19.6419 13.22 19.9408 13.6845 19.7414 14.4801C19.5652 14.8212 19.2855 15.0148 18.9025 15.0608C18.9121 15.2746 18.9025 15.4874 18.8736 15.6995C18.8447 15.7285 18.8158 15.7576 18.7868 15.7866C18.054 15.8253 17.3212 15.8253 16.5884 15.7866C16.5595 15.7576 16.5305 15.7285 16.5016 15.6995C16.463 14.7511 16.463 13.8026 16.5016 12.8541C16.5431 12.8226 16.572 12.7838 16.5884 12.738ZM18.9025 13.4348C19.4061 13.5941 19.5701 13.9231 19.3943 14.422C19.2673 14.5631 19.113 14.6599 18.9315 14.7123C18.9025 14.2869 18.8929 13.8611 18.9025 13.4348Z" fill="#EA7C69"/>
<path opacity="0.957" fill-rule="evenodd" clip-rule="evenodd" d="M5.71167 13.2014C7.04473 13.1296 7.99934 13.6909 8.57545 14.8854C8.75613 15.2979 8.80432 15.7237 8.72009 16.1629C8.16081 15.7467 7.60159 15.3306 7.04232 14.9144C6.26194 14.6077 5.65447 14.811 5.21991 15.5242C5.04794 16.051 5.12508 16.5349 5.45133 16.9759C6.54611 17.8011 7.63573 18.6334 8.72009 19.4728C8.77644 19.6031 8.79576 19.7385 8.77794 19.8793C8.70082 19.8793 8.62364 19.8793 8.54652 19.8793C8.54652 20.6342 8.54652 21.3891 8.54652 22.144C9.80017 22.1343 11.0537 22.144 12.307 22.173C12.3938 22.2601 12.4806 22.3472 12.5674 22.4343C13.4114 24.4917 14.2213 26.5627 14.9973 28.6476C15.0046 29.8702 14.3971 30.4024 13.1749 30.2445C12.9205 30.1506 12.6987 30.0055 12.5095 29.809C11.802 28.1043 11.1174 26.3913 10.4557 24.6699C8.83655 24.7022 7.21666 24.7022 5.59596 24.6699C4.36666 24.3845 3.6242 23.62 3.36857 22.3762C3.33 22.9763 3.33 23.5763 3.36857 24.1764C3.45147 24.4724 3.63467 24.6756 3.91819 24.7861C6.03942 24.8151 8.16075 24.8248 10.2821 24.8151C10.2821 25.2216 10.2821 25.6281 10.2821 26.0346C9.97361 26.0346 9.66502 26.0346 9.35648 26.0346C9.71651 27.9672 10.1022 29.8931 10.5136 31.8124C10.4268 31.8221 10.34 31.8317 10.2532 31.8414C10.1386 31.8339 10.0422 31.7952 9.96395 31.7253C9.56921 29.8314 9.19316 27.9345 8.8358 26.0346C8.37134 26.0153 7.90851 26.0347 7.44729 26.0926C7.84782 28.0059 8.23353 29.9222 8.60438 31.8414C8.43082 31.8414 8.25725 31.8414 8.08369 31.8414C7.707 29.9221 7.31168 28.0058 6.89768 26.0926C6.70135 26.0371 6.49886 26.0178 6.29021 26.0346C5.93284 27.9345 5.55679 29.8314 5.16205 31.7253C5.08379 31.7952 4.98737 31.8339 4.87278 31.8414C4.786 31.8317 4.69922 31.8221 4.61244 31.8124C5.0238 29.8931 5.4095 27.9672 5.76952 26.0346C5.22955 26.0346 4.68958 26.0346 4.14961 26.0346C3.75651 27.9686 3.37082 29.9042 2.99252 31.8414C2.8148 31.8598 2.64124 31.8405 2.47183 31.7833C2.89267 29.8745 3.31693 27.9679 3.74463 26.0636C3.35596 26.0505 2.97027 26.0118 2.58754 25.9475C2.35668 25.8319 2.21204 25.648 2.15364 25.3958C2.12471 23.2667 2.11507 21.1375 2.12471 19.0083C2.52969 19.0083 2.93467 19.0083 3.33965 19.0083C3.33001 17.8467 3.33965 16.6854 3.36857 15.5242C3.64596 14.2295 4.42699 13.4552 5.71167 13.2014Z" fill="#EA7C69"/>
<path opacity="0.972" fill-rule="evenodd" clip-rule="evenodd" d="M26.3658 13.2581C27.8914 13.1473 28.9231 13.8054 29.461 15.2324C29.5269 16.4785 29.5558 17.727 29.5477 18.9778C29.5558 20.2286 29.5269 21.4771 29.461 22.7232C29.0434 23.9742 28.1756 24.6323 26.8575 24.6975C25.3827 24.6347 23.9074 24.625 22.4317 24.6685C21.7942 26.3258 21.1482 27.9808 20.4936 29.6334C20.0996 30.1783 19.5692 30.3816 18.9026 30.2431C18.1779 29.9599 17.8597 29.4276 17.948 28.6462C18.7158 26.6053 19.5065 24.5729 20.32 22.549C20.4284 22.4207 20.5537 22.3143 20.696 22.2296C21.9301 22.2006 23.1643 22.1909 24.3987 22.2006C24.3987 21.465 24.3987 20.7296 24.3987 19.994C24.2953 20.0105 24.1988 19.9912 24.1094 19.9359C25.2244 19.5362 26.179 18.8975 26.9732 18.0197C27.5305 17.3106 27.8873 16.5073 28.0435 15.6098C27.9419 14.8305 27.508 14.3756 26.7418 14.2452C25.9335 14.3597 25.4706 14.8243 25.3533 15.6389C25.0685 16.2054 24.6539 16.6506 24.1094 16.9744C24.0643 16.9031 24.0353 16.8257 24.0227 16.7422C22.1336 17.2329 20.5426 16.7393 19.2497 15.2614C19.9711 14.8599 20.1832 14.2792 19.8861 13.5194C20.0801 13.5068 20.2536 13.5649 20.4068 13.6936C21.5229 15.1642 22.8728 15.4352 24.4566 14.5065C24.9458 13.8551 25.5822 13.4389 26.3658 13.2581Z" fill="#EA7C69"/>
<path opacity="0.956" fill-rule="evenodd" clip-rule="evenodd" d="M26.4237 14.6523C27.4423 14.6595 27.8183 15.1628 27.5519 16.1621C27.0565 17.6079 26.1019 18.6241 24.6881 19.2107C23.3137 19.7654 21.8866 19.9977 20.4069 19.9075C19.6776 19.7505 19.4365 19.315 19.6837 18.601C19.8066 18.3796 19.9898 18.2344 20.2333 18.1655C21.8286 18.2007 23.3328 17.8523 24.7459 17.1203C25.4593 16.6467 25.8353 15.9789 25.8741 15.1169C25.9991 14.8843 26.1823 14.7295 26.4237 14.6523Z" fill="#EA7C69"/>
<path opacity="0.953" fill-rule="evenodd" clip-rule="evenodd" d="M6.23129 15.1752C6.44959 15.1614 6.66172 15.1905 6.86769 15.2623C7.84514 16.0307 8.83832 16.7759 9.84718 17.4979C10.5251 17.1819 11.1904 16.8432 11.8431 16.4817C12.3602 16.2821 12.7748 16.4079 13.087 16.8592C13.2639 17.3716 13.1385 17.7877 12.711 18.1077C11.8118 18.5879 10.9054 19.0525 9.99182 19.5013C9.67709 19.5695 9.38782 19.5114 9.124 19.3271C8.01511 18.4851 6.90626 17.6431 5.79739 16.8011C5.34879 16.0913 5.49343 15.5494 6.23129 15.1752Z" fill="#EA7C69"/>
<path opacity="0.935" fill-rule="evenodd" clip-rule="evenodd" d="M13.5784 15.7527C14.3141 15.7345 15.0469 15.7538 15.7769 15.8108C15.854 16.798 15.854 17.7851 15.7769 18.7723C15.066 18.8388 14.3524 18.8485 13.6363 18.8013C13.5833 18.7796 13.535 18.7506 13.4916 18.7142C13.4953 18.454 13.4471 18.212 13.347 17.9884C13.4674 17.7718 13.5446 17.5396 13.5784 17.2915C13.5042 17.0156 13.456 16.735 13.4338 16.4496C13.3731 16.5086 13.3056 16.5183 13.2313 16.4786C13.0005 16.2121 13.0777 16.0863 13.4627 16.1011C13.4484 15.9642 13.4869 15.8481 13.5784 15.7527Z" fill="#EA7C69"/>
<path opacity="0.912" fill-rule="evenodd" clip-rule="evenodd" d="M29.6075 19.0078C30.0511 19.0078 30.4946 19.0078 30.9382 19.0078C30.9653 21.1781 30.9364 23.3459 30.8514 25.5115C30.7453 25.6954 30.6007 25.8406 30.4175 25.947C30.0555 26.0235 29.689 26.0525 29.3182 26.0341C29.6891 27.9533 30.0748 29.8696 30.4753 31.7829C30.3059 31.84 30.1324 31.8594 29.9546 31.8409C29.5763 29.9038 29.1907 27.9681 28.7976 26.0341C28.2576 26.0341 27.7176 26.0341 27.1776 26.0341C27.5377 27.9667 27.9234 29.8927 28.3347 31.8119C28.2479 31.8216 28.1612 31.8312 28.0744 31.8409C27.9598 31.8335 27.8634 31.7947 27.7851 31.7248C27.3904 29.8309 27.0143 27.934 26.6569 26.0341C26.4483 26.0173 26.2458 26.0367 26.0495 26.0922C25.6355 28.0053 25.2402 29.9216 24.8635 31.8409C24.6899 31.8409 24.5163 31.8409 24.3428 31.8409C24.7136 29.9217 25.0993 28.0055 25.4999 26.0922C25.0387 26.0342 24.5758 26.0149 24.1114 26.0341C23.754 27.934 23.3779 29.8309 22.9832 31.7248C22.9049 31.7947 22.8085 31.8335 22.6939 31.8409C22.6072 31.8312 22.5204 31.8216 22.4336 31.8119C22.845 29.8925 23.2307 27.9665 23.5907 26.0341C23.2821 26.0341 22.9735 26.0341 22.665 26.0341C22.665 25.647 22.665 25.2599 22.665 24.8727C24.7864 24.8824 26.9077 24.8727 29.029 24.8437C29.3141 24.7318 29.4972 24.5286 29.5786 24.234C29.6075 22.492 29.6172 20.75 29.6075 19.0078Z" fill="#EA7C69"/>
<path opacity="0.959" fill-rule="evenodd" clip-rule="evenodd" d="M8.94922 20.3438C13.9633 20.3438 18.9773 20.3438 23.9913 20.3438C23.9913 20.8276 23.9913 21.3116 23.9913 21.7955C18.9773 21.7955 13.9633 21.7955 8.94922 21.7955C8.94922 21.3116 8.94922 20.8276 8.94922 20.3438Z" fill="#EA7C69"/>
<path opacity="0.958" fill-rule="evenodd" clip-rule="evenodd" d="M16.008 22.1992C16.3166 22.1992 16.6252 22.1992 16.9337 22.1992C16.9337 24.9091 16.9337 27.6189 16.9337 30.3288C17.7423 30.3944 18.533 30.5492 19.3057 30.7934C19.3057 31.1418 19.3057 31.4902 19.3057 31.8386C17.4158 31.8386 15.5259 31.8386 13.636 31.8386C13.617 31.488 13.6362 31.1396 13.6939 30.7934C14.4403 30.5136 15.2117 30.3588 16.008 30.3288C16.008 27.6189 16.008 24.9091 16.008 22.1992Z" fill="#EA7C69"/>
</svg>
