<svg width="33" height="34" viewBox="0 0 33 34" fill="none" xmlns="http://www.w3.org/2000/svg">
<path opacity="0.969" fill-rule="evenodd" clip-rule="evenodd" d="M14.5019 2.56641C14.6332 2.56641 14.7645 2.56641 14.8958 2.56641C15.9557 2.7741 16.5372 3.42361 16.6402 4.51494C16.6145 4.68919 16.577 4.85862 16.5276 5.02325C17.4842 5.04207 18.4408 5.0609 19.3974 5.07973C19.5929 5.09777 19.7523 5.18249 19.8757 5.33388C19.9673 6.04389 19.986 6.75929 19.932 7.48009C19.8061 7.85116 19.5529 8.08649 19.1723 8.18608C16.1305 8.24183 13.0918 8.223 10.0565 8.1296C9.7286 7.95121 9.53165 7.67823 9.46565 7.31065C9.42812 6.72704 9.42812 6.14342 9.46565 5.5598C9.56227 5.27451 9.75921 5.11449 10.0565 5.07973C10.9941 5.05149 11.932 5.04208 12.87 5.05149C12.6576 3.70558 13.2015 2.87722 14.5019 2.56641ZM14.5019 3.52655C15.4837 3.57876 15.8214 4.06824 15.5148 4.99501C14.9768 5.0694 14.4422 5.0694 13.911 4.99501C13.6247 4.30864 13.8216 3.81915 14.5019 3.52655Z" fill="#EA7C69"/>
<path opacity="0.986" fill-rule="evenodd" clip-rule="evenodd" d="M22.7722 31.4825C17.3514 31.4825 11.9306 31.4825 6.50992 31.4825C5.72951 31.3299 5.25121 30.8593 5.07501 30.0705C5.0375 22.427 5.0375 14.7835 5.07501 7.13998C5.16447 6.51756 5.49271 6.07514 6.05975 5.81272C7.01243 5.73042 7.96901 5.70218 8.92956 5.728C8.92021 6.31192 8.92956 6.89554 8.95769 7.47885C9.17186 8.2021 9.65016 8.62572 10.3926 8.74963C13.2624 8.78731 16.1322 8.78731 19.002 8.74963C19.7313 8.67649 20.2096 8.29052 20.4369 7.59181C20.516 6.97414 20.5442 6.35287 20.5213 5.728C21.4031 5.71859 22.2847 5.72801 23.166 5.75624C23.7756 5.91626 24.1602 6.30221 24.3196 6.91406C24.3477 12.1101 24.3571 17.3062 24.3477 22.5023C22.2467 22.4409 20.718 23.3446 19.7617 25.2133C19.0029 27.3327 19.4625 29.1306 21.1403 30.6071C21.6573 30.9605 22.2012 31.2523 22.7722 31.4825ZM9.9987 10.9806C10.4772 10.9424 10.6554 11.1495 10.5333 11.6018C10.0362 12.1007 9.53914 12.5996 9.0421 13.0985C8.87329 13.2115 8.70447 13.2115 8.53566 13.0985C8.31998 12.882 8.10423 12.6655 7.88855 12.449C7.70159 11.9665 7.86103 11.75 8.36685 11.7995C8.52508 11.9112 8.6751 12.0336 8.81701 12.1666C9.23083 11.7889 9.62472 11.3935 9.9987 10.9806ZM12.756 11.6583C15.6258 11.6489 18.4956 11.6583 21.3654 11.6865C21.643 11.8371 21.7087 12.0536 21.5623 12.3361C21.4825 12.3903 21.3981 12.4373 21.3091 12.4773C18.4956 12.5149 15.682 12.5149 12.8685 12.4773C12.5557 12.3949 12.4526 12.1972 12.559 11.8842C12.6364 11.8162 12.7021 11.7409 12.756 11.6583ZM10.1112 15.273C10.5659 15.3572 10.6878 15.6019 10.477 16.0072C10.0174 16.4685 9.55793 16.9297 9.09837 17.3909C8.93811 17.5333 8.7693 17.5521 8.59193 17.4474C8.33871 17.1933 8.0855 16.9391 7.83228 16.685C7.76638 16.2049 7.96333 16.0261 8.42312 16.1484C8.54506 16.2708 8.66694 16.3931 8.78888 16.5155C9.20686 16.0675 9.64763 15.6533 10.1112 15.273ZM12.756 16.0072C15.6446 15.9978 18.5332 16.0072 21.4217 16.0354C21.7217 16.2802 21.7217 16.5249 21.4217 16.7697C18.5331 16.8073 15.6445 16.8073 12.756 16.7697C12.5199 16.6013 12.473 16.3848 12.6153 16.1202C12.6713 16.0882 12.7182 16.0505 12.756 16.0072ZM10.055 19.6219C10.4302 19.5939 10.6084 19.7633 10.5895 20.1302C10.0755 20.7027 9.54088 21.2581 8.98583 21.7963C8.8281 21.839 8.67803 21.8201 8.53566 21.7398C8.30118 21.5045 8.06676 21.2692 7.83228 21.0338C7.73859 20.5821 7.9168 20.3844 8.36685 20.4408C8.47939 20.5538 8.59193 20.6667 8.70447 20.7797C8.76074 20.8174 8.81701 20.8174 8.87329 20.7797C9.26127 20.3808 9.65517 19.9948 10.055 19.6219ZM12.8122 20.2996C15.6446 20.2902 18.4769 20.2996 21.3091 20.3279C21.635 20.4459 21.7194 20.6624 21.5623 20.9774C21.5115 21.0452 21.4459 21.0923 21.3654 21.1186C18.5143 21.1562 15.6633 21.1562 12.8122 21.1186C12.551 21.0015 12.4666 20.8039 12.559 20.5255C12.6376 20.4369 12.722 20.3615 12.8122 20.2996Z" fill="#EA7C69"/>
<path opacity="0.972" fill-rule="evenodd" clip-rule="evenodd" d="M23.6155 23.0117C26.2018 23.1038 27.6274 24.4405 27.8921 27.0217C27.8253 28.6914 27.0562 29.9057 25.585 30.6646C24.0175 31.2898 22.5733 31.0827 21.2521 30.0434C19.7954 28.5226 19.5422 26.8188 20.4925 24.932C21.229 23.7951 22.27 23.155 23.6155 23.0117ZM25.0785 25.6662C25.5836 25.6444 25.743 25.8704 25.5568 26.344C24.9097 26.9935 24.2626 27.643 23.6155 28.2925C23.4279 28.4055 23.2403 28.4055 23.0528 28.2925C22.7808 28.0196 22.5088 27.7465 22.2368 27.4736C22.0499 26.991 22.2093 26.7745 22.7151 26.8241C22.9027 27.0123 23.0903 27.2006 23.2779 27.3889C23.3154 27.4265 23.3529 27.4265 23.3904 27.3889C23.9645 26.8221 24.5272 26.2479 25.0785 25.6662Z" fill="#EA7C69"/>
</svg>
