<svg width="33" height="34" viewBox="0 0 33 34" fill="none" xmlns="http://www.w3.org/2000/svg">
<path opacity="0.982" fill-rule="evenodd" clip-rule="evenodd" d="M8.19815 2.58594C8.40028 2.58594 8.60234 2.58594 8.80447 2.58594C9.0654 2.70983 9.23997 2.91268 9.3281 3.1945C9.34646 4.52227 9.36487 5.85004 9.38322 7.17781C9.62735 7.72654 10.0223 7.88329 10.5683 7.64807C10.6901 7.54442 10.7911 7.42456 10.8715 7.28846C10.9519 6.3149 10.9794 5.33751 10.9541 4.3563C11.6156 4.3563 12.277 4.3563 12.9384 4.3563C12.9293 3.98701 12.9384 3.61819 12.966 3.24982C13.0318 2.93556 13.2063 2.71426 13.4896 2.58594C13.6918 2.58594 13.8938 2.58594 14.096 2.58594C14.3321 2.70333 14.5067 2.88774 14.6196 3.13918C14.6379 4.44851 14.6564 5.75783 14.6747 7.06717C14.9007 7.75136 15.3325 7.92655 15.97 7.59274C16.041 7.51476 16.1053 7.43178 16.1629 7.34378C16.2434 6.35177 16.271 5.35594 16.2456 4.3563C16.9254 4.3563 17.6053 4.3563 18.285 4.3563C18.2759 3.95017 18.285 3.54447 18.3126 3.13918C18.4255 2.88774 18.6001 2.70333 18.8362 2.58594C19.0384 2.58594 19.2404 2.58594 19.4426 2.58594C19.7259 2.71426 19.9004 2.93556 19.9662 3.24982C19.9846 4.55915 20.003 5.86848 20.0213 7.17781C20.1755 7.60123 20.4787 7.79487 20.9308 7.75871C21.189 7.68404 21.3819 7.52728 21.5095 7.28846C21.5892 6.31416 21.6168 5.33678 21.5922 4.3563C22.2537 4.3563 22.9151 4.3563 23.5765 4.3563C23.5674 3.9686 23.5765 3.58133 23.6041 3.1945C23.6922 2.91268 23.8668 2.70983 24.1277 2.58594C24.3299 2.58594 24.5319 2.58594 24.734 2.58594C24.995 2.70983 25.1695 2.91268 25.2577 3.1945C25.276 4.50383 25.2944 5.81316 25.3128 7.12249C25.6101 7.80914 26.0602 7.93823 26.6632 7.50976C26.7414 7.40819 26.8058 7.29754 26.8562 7.17781C26.8837 6.23749 26.8929 5.29699 26.8837 4.3563C28.8047 4.18446 30.0357 5.01432 30.5767 6.84587C30.5767 7.80481 30.5767 8.76378 30.5767 9.72271C21.1696 9.72271 11.7626 9.72271 2.35547 9.72271C2.35547 8.76378 2.35547 7.80481 2.35547 6.84587C2.67603 5.51911 3.50282 4.69847 4.83585 4.38396C5.77271 4.3563 6.70974 4.34708 7.64696 4.3563C7.63779 3.9686 7.64698 3.58133 7.67452 3.1945C7.76266 2.91268 7.93722 2.70983 8.19815 2.58594Z" fill="#EA7C69"/>
<path opacity="0.989" fill-rule="evenodd" clip-rule="evenodd" d="M2.35547 11.3242C11.7626 11.3242 21.1696 11.3242 30.5767 11.3242C30.5767 17.0226 30.5767 22.7209 30.5767 28.4193C30.246 29.747 29.4192 30.5769 28.0963 30.9088C20.3428 30.9088 12.5894 30.9088 4.83585 30.9088C3.53759 30.5832 2.71079 29.7718 2.35547 28.4746C2.35547 22.7578 2.35547 17.041 2.35547 11.3242ZM7.09576 14.1457C8.32691 14.1365 9.5579 14.1457 10.7888 14.1734C11.1178 14.2452 11.3474 14.4388 11.4778 14.7543C11.5145 16.0821 11.5145 17.4098 11.4778 18.7376C11.3474 19.0531 11.1178 19.2467 10.7888 19.3185C9.55779 19.3554 8.32675 19.3554 7.09576 19.3185C6.75262 19.2614 6.52296 19.0678 6.40676 18.7376C6.37002 17.4098 6.37002 16.0821 6.40676 14.7543C6.53385 14.4287 6.76351 14.2258 7.09576 14.1457ZM22.1434 14.1457C23.3746 14.1365 24.6056 14.1457 25.8364 14.1734C26.1817 14.2311 26.4113 14.4247 26.5254 14.7543C26.5622 16.0821 26.5622 17.4098 26.5254 18.7376C26.4113 19.0672 26.1817 19.2608 25.8364 19.3185C24.6055 19.3554 23.3744 19.3554 22.1434 19.3185C21.8144 19.2467 21.5848 19.0531 21.4544 18.7376C21.4177 17.4098 21.4177 16.0821 21.4544 14.7543C21.5943 14.4381 21.8239 14.2352 22.1434 14.1457ZM18.1197 14.699C18.8741 14.6694 19.1956 15.0198 19.0843 15.7501C19.0475 15.8239 19.0108 15.8977 18.974 15.9714C18.0829 16.8658 17.1919 17.7602 16.3007 18.6546C16.0354 18.8147 15.7598 18.8331 15.4739 18.7099C14.952 18.2414 14.4467 17.7527 13.9582 17.2439C13.6701 16.7131 13.7895 16.2982 14.3164 15.9991C14.5001 15.9622 14.6839 15.9622 14.8676 15.9991C15.2227 16.2539 15.5534 16.5397 15.8598 16.8566C16.599 16.1145 17.3523 15.3953 18.1197 14.699ZM6.98552 21.2825C8.29015 21.2733 9.59466 21.2825 10.899 21.3102C11.2022 21.3931 11.3951 21.5868 11.4778 21.8911C11.5145 23.2004 11.5145 24.5097 11.4778 25.8191C11.3951 26.1233 11.2022 26.317 10.899 26.4C9.57614 26.4369 8.25327 26.4369 6.9304 26.4C6.68236 26.2985 6.50781 26.1233 6.40676 25.8744C6.37002 24.5282 6.37002 23.1819 6.40676 21.8357C6.52284 21.5623 6.71576 21.3779 6.98552 21.2825ZM14.4818 21.2825C15.8048 21.2733 17.1276 21.2825 18.4504 21.3102C18.7647 21.441 18.9576 21.6715 19.0292 22.0017C19.0659 23.2373 19.0659 24.4729 19.0292 25.7084C18.9723 26.0528 18.7794 26.2833 18.4504 26.4C17.1275 26.4369 15.8047 26.4369 14.4818 26.4C14.1528 26.2833 13.9599 26.0528 13.903 25.7084C13.8663 24.4729 13.8663 23.2373 13.903 22.0017C13.9855 21.6703 14.1784 21.4305 14.4818 21.2825ZM22.0332 21.2825C23.3378 21.2733 24.6423 21.2825 25.9467 21.3102C26.2263 21.3879 26.4192 21.5631 26.5254 21.8357C26.5622 23.1819 26.5622 24.5282 26.5254 25.8744C26.4192 26.147 26.2263 26.3222 25.9467 26.4C24.6422 26.4369 23.3377 26.4369 22.0332 26.4C21.73 26.317 21.5371 26.1233 21.4544 25.8191C21.4177 24.5097 21.4177 23.2004 21.4544 21.8911C21.5472 21.5859 21.7402 21.3831 22.0332 21.2825Z" fill="#EA7C69"/>
<path opacity="0.932" fill-rule="evenodd" clip-rule="evenodd" d="M7.97656 15.7539C8.61964 15.7539 9.26267 15.7539 9.90575 15.7539C9.90575 16.4178 9.90575 17.0817 9.90575 17.7456C9.26267 17.7456 8.61964 17.7456 7.97656 17.7456C7.97656 17.0817 7.97656 16.4178 7.97656 15.7539Z" fill="#EA7C69"/>
<path opacity="0.932" fill-rule="evenodd" clip-rule="evenodd" d="M23.0234 15.7539C23.6665 15.7539 24.3095 15.7539 24.9526 15.7539C24.9526 16.4178 24.9526 17.0817 24.9526 17.7456C24.3095 17.7456 23.6665 17.7456 23.0234 17.7456C23.0234 17.0817 23.0234 16.4178 23.0234 15.7539Z" fill="#EA7C69"/>
<path opacity="0.959" fill-rule="evenodd" clip-rule="evenodd" d="M7.98047 22.8906C8.62355 22.8906 9.26658 22.8906 9.90966 22.8906C9.90966 23.5361 9.90966 24.1815 9.90966 24.827C9.26658 24.827 8.62355 24.827 7.98047 24.827C7.98047 24.1815 7.98047 23.5361 7.98047 22.8906Z" fill="#EA7C69"/>
<path opacity="0.932" fill-rule="evenodd" clip-rule="evenodd" d="M15.4727 22.8906C16.1341 22.8906 16.7955 22.8906 17.457 22.8906C17.457 23.5361 17.457 24.1815 17.457 24.827C16.7955 24.827 16.1341 24.827 15.4727 24.827C15.4727 24.1815 15.4727 23.5361 15.4727 22.8906Z" fill="#EA7C69"/>
<path opacity="0.959" fill-rule="evenodd" clip-rule="evenodd" d="M23.0234 22.8906C23.6665 22.8906 24.3095 22.8906 24.9526 22.8906C24.9526 23.5361 24.9526 24.1815 24.9526 24.827C24.3095 24.827 23.6665 24.827 23.0234 24.827C23.0234 24.1815 23.0234 23.5361 23.0234 22.8906Z" fill="#EA7C69"/>
</svg>
