<svg width="33" height="34" viewBox="0 0 33 34" fill="none" xmlns="http://www.w3.org/2000/svg">
<path d="M13.1876 20.4776L13.6273 20.4795C20.0134 20.5353 23.6266 21.8299 23.6266 25.3659C23.6266 28.827 20.1637 30.1622 14.0568 30.2741L13.1876 30.2818C6.52666 30.2818 2.75 29.0109 2.75 25.3935C2.75 21.7714 6.54169 20.4776 13.1876 20.4776ZM13.1876 22.5478C7.66377 22.5478 4.8125 23.5207 4.8125 25.3935C4.8125 27.2545 7.65693 28.2117 13.1876 28.2117C18.7119 28.2117 21.5641 27.2387 21.5641 25.3659C21.5641 23.5059 18.7171 22.5478 13.1876 22.5478ZM24.1817 19.5003C24.98 19.5548 25.7736 19.6696 26.5363 19.8394C28.1699 20.1655 29.3844 20.7744 29.9409 21.9463C30.3518 22.8139 30.3518 23.8235 29.9409 24.691C29.3876 25.86 28.1857 26.4644 26.5429 26.8036C25.985 26.9188 25.4397 26.5582 25.325 25.9983C25.2103 25.4384 25.5695 24.8911 26.1273 24.7759C27.1845 24.5577 27.8881 24.2038 28.0781 23.8025C28.2227 23.4971 28.2227 23.1403 28.0786 22.8359C27.8873 22.4331 27.18 22.0786 26.1122 21.8651C25.4283 21.7132 24.7369 21.6131 24.0417 21.5657C23.4735 21.5269 23.0442 21.0331 23.0829 20.4627C23.1215 19.8924 23.6135 19.4615 24.1817 19.5003ZM13.1876 3.97656C17.1037 3.97656 20.2483 7.13229 20.2483 11.062C20.2483 14.9928 17.1039 18.1487 13.1876 18.1487C9.27152 18.1487 6.12838 14.9929 6.12838 11.062C6.12838 7.1321 9.27177 3.97656 13.1876 3.97656ZM22.0271 5.45271C25.1001 5.45271 27.5917 7.95409 27.5917 11.0379C27.5917 14.1227 25.1005 16.6232 22.0271 16.6232C21.4575 16.6232 20.9958 16.1598 20.9958 15.5881C20.9958 15.0165 21.4575 14.553 22.0271 14.553C23.9614 14.553 25.5292 12.9794 25.5292 11.0379C25.5292 9.0973 23.9609 7.52285 22.0271 7.52285C21.4575 7.52285 20.9958 7.05943 20.9958 6.48778C20.9958 5.91613 21.4575 5.45271 22.0271 5.45271ZM13.1876 6.0467C10.4109 6.0467 8.19088 8.27533 8.19088 11.062C8.19088 13.8498 10.4108 16.0786 13.1876 16.0786C15.9648 16.0786 18.1858 13.8495 18.1858 11.062C18.1858 8.27567 15.9647 6.0467 13.1876 6.0467Z" fill="#EA7C69"/>
</svg>
